# xmcd CD database file
#
# Track frame offsets:
#	150
#	25763
#	61123
#	82684
#	100778
#	130860
#	185728
#	235818
#	262385
#	303558
#
# Disc length: 4640 seconds
#
# Revision: 0
# Processed by: cddbd v1.5PL3 Copyright (c) Steve Scherf et al.
# Submitted via: CDex 1.51
#
DISCID=7e121e0a
DTITLE=Freddie Hubbard - The soul-jazz and fusion years: 66-82 (1-cd)
DYEAR=2002
DGENRE=Jazz
TTITLE0=Return Of The Prodigal Son
TTITLE1=Little Sunflower (original)
TTITLE2=Latina
TTITLE3=Soul Turnaround
TTITLE4=Gittin' Down
TTITLE5=Red Clay
TTITLE6=First Light
TTITLE7=People Make The World Go Around
TTITLE8=Spirits Or Trane
TTITLE9=Keep Your Soul Together
EXTD=YEAR: 2002
EXTT0=
EXTT1=
EXTT2=
EXTT3=
EXTT4=
EXTT5=
EXTT6=
EXTT7=
EXTT8=
EXTT9=
PLAYORDER=
